{
  "accessors": [
    {
      "bufferView": 2,
      "componentType": 5126,
      "count": 65532,
      "max": [
        0.635321319103241,
        0.30390048027038574,
        17.05076789855957
      ],
      "min": [
        -10.633559226989746,
        -0.4227941632270813,
        8.127235412597656
      ],
      "type": "VEC3"
    },
    {
      "bufferView": 2,
      "byteOffset": 786384,
      "componentType": 5126,
      "count": 65532,
      "max": [
        0.9998030066490173,
        0.9999951124191284,
        0.9996500611305237
      ],
      "min": [
        -0.9991824626922607,
        -1.0,
        -0.9968616366386414
      ],
      "type": "VEC3"
    },
    {
      "bufferView": 3,
      "componentType": 5126,
      "count": 65532,
      "max": [
        0.95686274766922,
        0.062745101749897,
        0.07058823853731155,
        1.0
      ],
      "min": [
        0.95686274766922,
        0.062745101749897,
        0.07058823853731155,
        1.0
      ],
      "type": "VEC4"
    },
    {
      "bufferView": 1,
      "componentType": 5126,
      "count": 65532,
      "max": [
        0.5,
        0.75
      ],
      "min": [
        0.0,
        0.0
      ],
      "type": "VEC2"
    },
    {
      "bufferView": 0,
      "componentType": 5125,
      "count": 369105,
      "type": "SCALAR"
    },
    {
      "bufferView": 2,
      "byteOffset": 1572768,
      "componentType": 5126,
      "count": 38626,
      "max": [
        0.6290289759635925,
        0.3249175250530243,
        17.05076789855957
      ],
      "min": [
        -10.633559226989746,
        -0.4227941632270813,
        8.127235412597656
      ],
      "type": "VEC3"
    },
    {
      "bufferView": 2,
      "byteOffset": 2036280,
      "componentType": 5126,
      "count": 38626,
      "max": [
        0.999500036239624,
        1.0,
        0.9981223940849304
      ],
      "min": [
        -0.9988926649093628,
        -0.999993085861206,
        -0.9970378279685974
      ],
      "type": "VEC3"
    },
    {
      "bufferView": 3,
      "byteOffset": 1048512,
      "componentType": 5126,
      "count": 38626,
      "max": [
        0.95686274766922,
        0.062745101749897,
        0.07058823853731155,
        1.0
      ],
      "min": [
        0.95686274766922,
        0.062745101749897,
        0.07058823853731155,
        1.0
      ],
      "type": "VEC4"
    },
    {
      "bufferView": 1,
      "byteOffset": 524256,
      "componentType": 5126,
      "count": 38626,
      "max": [
        0.75,
        1.0
      ],
      "min": [
        0.25,
        0.0
      ],
      "type": "VEC2"
    },
    {
      "bufferView": 0,
      "byteOffset": 1476420,
      "componentType": 5125,
      "count": 220719,
      "type": "SCALAR"
    },
    {
      "bufferView": 2,
      "byteOffset": 2499792,
      "componentType": 5126,
      "count": 65532,
      "max": [
        0.6430074572563171,
        0.6430074572563171,
        17.18231964111328
      ],
      "min": [
        -0.6430074572563171,
        -0.6430074572563171,
        -17.18231964111328
      ],
      "type": "VEC3"
    },
    {
      "bufferView": 2,
      "byteOffset": 3286176,
      "componentType": 5126,
      "count": 65532,
      "max": [
        1.0,
        1.0,
        1.0
      ],
      "min": [
        -1.0,
        -1.0,
        -1.0
      ],
      "type": "VEC3"
    },
    {
      "bufferView": 3,
      "byteOffset": 1666528,
      "componentType": 5126,
      "count": 65532,
      "max": [
        0.9882352948188782,
        0.9882352948188782,
        0.9882352948188782,
        1.0
      ],
      "min": [
        0.9882352948188782,
        0.9882352948188782,
        0.9882352948188782,
        1.0
      ],
      "type": "VEC4"
    },
    {
      "bufferView": 0,
      "byteOffset": 2359296,
      "componentType": 5125,
      "count": 379557,
      "type": "SCALAR"
    },
    {
      "bufferView": 2,
      "byteOffset": 4072560,
      "componentType": 5126,
      "count": 5562,
      "max": [
        0.6430074572563171,
        0.6430074572563171,
        17.173927307128906
      ],
      "min": [
        -0.6430074572563171,
        -0.6430074572563171,
        -17.18231964111328
      ],
      "type": "VEC3"
    },
    {
      "bufferView": 2,
      "byteOffset": 4139304,
      "componentType": 5126,
      "count": 5562,
      "max": [
        1.0,
        1.0,
        0.9831310510635376
      ],
      "min": [
        -1.0,
        -1.0,
        -0.9990054368972778
      ],
      "type": "VEC3"
    },
    {
      "bufferView": 3,
      "byteOffset": 2715040,
      "componentType": 5126,
      "count": 5562,
      "max": [
        0.9882352948188782,
        0.9882352948188782,
        0.9882352948188782,
        1.0
      ],
      "min": [
        0.9882352948188782,
        0.9882352948188782,
        0.9882352948188782,
        1.0
      ],
      "type": "VEC4"
    },
    {
      "bufferView": 0,
      "byteOffset": 3877524,
      "componentType": 5125,
      "count": 19803,
      "type": "SCALAR"
    }
  ],
  "asset": {
    "extras": {
      "author": "oskar.gustafsson1 (https://sketchfab.com/oskar.gustafsson1)",
      "license": "CC-BY-4.0 (http://creativecommons.org/licenses/by/4.0/)",
      "source": "https://sketchfab.com/3d-models/golf-flag-c18b3a4387954eab9a07321cf8e91f91",
      "title": "Golf Flag"
    },
    "generator": "Sketchfab-15.12.0",
    "version": "2.0"
  },
  "bufferViews": [
    {
      "buffer": 0,
      "byteLength": 3956736,
      "name": "floatBufferViews",
      "target": 34963
    },
    {
      "buffer": 0,
      "byteLength": 833264,
      "byteOffset": 3956736,
      "byteStride": 8,
      "name": "floatBufferViews",
      "target": 34962
    },
    {
      "buffer": 0,
      "byteLength": 4206048,
      "byteOffset": 4790000,
      "byteStride": 12,
      "name": "floatBufferViews",
      "target": 34962
    },
    {
      "buffer": 0,
      "byteLength": 2804032,
      "byteOffset": 8996048,
      "byteStride": 16,
      "name": "floatBufferViews",
      "target": 34962
    }
  ],
  "buffers": [
    {
      "byteLength": 11800080,
      "uri": "scene.bin"
    }
  ],
  "materials": [
    {
      "doubleSided": true,
      "name": "material_0",
      "pbrMetallicRoughness": {
        "metallicFactor": 0.0,
        "roughnessFactor": 0.6
      }
    }
  ],
  "meshes": [
    {
      "name": "Object_0",
      "primitives": [
        {
          "attributes": {
            "COLOR_0": 2,
            "NORMAL": 1,
            "POSITION": 0,
            "TEXCOORD_0": 3
          },
          "indices": 4,
          "material": 0,
          "mode": 4
        }
      ]
    },
    {
      "name": "Object_1",
      "primitives": [
        {
          "attributes": {
            "COLOR_0": 7,
            "NORMAL": 6,
            "POSITION": 5,
            "TEXCOORD_0": 8
          },
          "indices": 9,
          "material": 0,
          "mode": 4
        }
      ]
    },
    {
      "name": "Object_2",
      "primitives": [
        {
          "attributes": {
            "COLOR_0": 12,
            "NORMAL": 11,
            "POSITION": 10
          },
          "indices": 13,
          "material": 0,
          "mode": 4
        }
      ]
    },
    {
      "name": "Object_3",
      "primitives": [
        {
          "attributes": {
            "COLOR_0": 16,
            "NORMAL": 15,
            "POSITION": 14
          },
          "indices": 17,
          "material": 0,
          "mode": 4
        }
      ]
    }
  ],
  "nodes": [
    {
      "children": [
        1
      ],
      "matrix": [
        1.0,
        0.0,
        0.0,
        0.0,
        0.0,
        2.220446049250313e-16,
        -1.0,
        0.0,
        0.0,
        1.0,
        2.220446049250313e-16,
        0.0,
        0.0,
        0.0,
        0.0,
        1.0
      ],
      "name": "Sketchfab_model"
    },
    {
      "children": [
        2,
        3,
        4,
        5
      ],
      "name": "yourMesh (3).obj.cleaner.materialmerger.gles"
    },
    {
      "mesh": 0,
      "name": "Object_2"
    },
    {
      "mesh": 1,
      "name": "Object_3"
    },
    {
      "mesh": 2,
      "name": "Object_4"
    },
    {
      "mesh": 3,
      "name": "Object_5"
    }
  ],
  "scene": 0,
  "scenes": [
    {
      "name": "Sketchfab_Scene",
      "nodes": [
        0
      ]
    }
  ]
}
